# Blender v2.74 (sub 0) OBJ File: ''
# www.blender.org
# UVs by headus UVLayout v2.08.01 2013/07/04 09:42:04
mtllib LOW.mtl
o Group4661
v -0.627751 -1.590765 2.103773
v 0.271022 -1.816426 2.082852
v 0.492079 -1.267607 2.465618
v -0.059158 -1.818129 1.304780
v -1.193749 -1.537013 1.200886
v -0.629054 -1.730729 0.711409
v -2.213753 -0.667739 0.113412
v -1.945257 -0.625445 0.925348
v -1.337842 -0.209062 0.698730
v 0.132432 -0.056576 0.164388
v -0.001299 -0.451780 -0.251943
v -0.174105 0.098967 0.561532
v -0.305284 -1.962543 -0.632627
v 0.685187 -1.998436 -0.733110
v 1.048964 -2.027161 1.015132
v 1.339376 -1.262728 1.781050
v 0.743470 -1.541880 1.960250
v -1.300923 -1.483555 0.429486
v -0.816748 -1.612337 -0.446170
v -0.746894 -1.655697 0.030362
v 0.813968 -1.279578 -1.207402
v 1.371621 -1.332698 -1.178454
v -0.028355 -1.944722 -0.875336
v -0.912921 -0.838453 2.348730
v -1.221820 -0.400900 1.818922
v -1.305711 -0.905914 1.588167
v 1.104408 -0.300732 0.823218
v 0.515771 -0.038184 1.207976
v 1.489132 -2.048315 0.492377
v 1.813110 -1.869610 -0.275777
v 1.831612 -1.723852 0.345365
v 0.780249 -0.965137 -1.110465
v 1.340117 -1.227660 -1.140002
v -1.212968 -0.234551 0.808023
v 0.218652 -0.493298 -0.735399
v -0.780857 -0.315214 -0.713973
v 0.399232 -0.763800 -0.742459
v 0.596095 -0.701224 -0.521544
v -0.603445 0.059314 0.784461
v -0.604781 -0.180413 1.908786
v -1.059420 -0.150284 1.757094
v 2.199668 -1.470081 0.101141
v 0.407652 -0.358560 2.615445
v 0.963717 -0.631164 2.322096
v -0.558986 -1.259030 -1.179276
v -0.898222 -1.005667 -1.213795
v 0.077515 -0.511569 -0.881164
v -2.102589 -1.115798 -0.091356
v -1.813290 -0.965553 -0.737448
v -0.890922 -1.336948 -1.129274
v -0.453257 -0.285170 2.241389
v -0.606229 -1.845780 0.357593
v -0.082622 -1.861032 1.199486
v 1.918225 -1.561074 0.928344
v 1.085845 -1.612272 1.588030
v 1.408784 -1.776614 1.033896
v 1.054878 -1.970292 -0.794118
v 1.062495 -1.591178 -1.016307
v 1.986920 -1.721799 -0.445363
v 1.783288 -1.603109 -0.848190
v -0.197997 -1.418632 -0.983628
v 0.052271 -1.115608 -1.021249
v -1.584190 -0.576236 1.110952
v 2.055500 -1.233561 0.980544
v 2.069008 -1.033742 -0.051584
v 1.615083 -1.063999 0.984831
v 1.524982 -1.119435 1.489746
v 1.770408 -1.220549 -0.732222
v 1.217237 -0.753359 0.227487
v -0.766330 -1.626323 -0.576103
v -1.487492 -1.434195 0.162055
v -1.828378 -1.284404 -0.091462
v 1.473268 -0.545128 0.861467
v 0.194859 -0.329985 -0.189867
v -1.622867 -1.089293 1.446339
v 0.734577 -0.765573 -0.739089
v 0.413811 -0.934706 -0.820443
v 1.737617 -0.901422 -0.082580
v 0.742810 -0.736271 -0.436522
v -2.097347 -0.705478 0.781900
v -2.222973 -1.007899 0.169381
v -2.096333 -0.914226 0.984918
v 1.466051 -0.813085 1.842313
v 1.596325 -0.867803 1.226183
v 1.489545 -1.123493 1.635390
v -1.010384 -0.323877 -0.795988
v -1.774968 -0.589731 -0.849647
v -0.046980 -1.217426 -1.016501
v -0.248451 -0.747143 2.699634
v -0.583875 -1.387413 2.250889
v 0.212094 -0.718956 2.783267
v 0.644397 -0.652682 -0.397836
v 1.609865 -1.748754 -0.700135
v 1.306040 -2.025711 -0.399515
v -1.525232 -0.440100 -0.686742
v -1.973557 -0.429323 -0.410469
v -1.512814 -0.182642 -0.112806
v -0.669214 -1.888945 -0.399150
v -0.378123 -1.737912 -0.700034
v -1.493259 -0.365690 0.842228
v 2.175374 -1.182092 0.169724
v 0.857614 -1.977563 1.250298
v 0.484845 -1.889407 1.835497
v 0.488598 -1.108276 -1.184721
v -1.221125 -1.305835 1.734596
v -1.034522 -1.279291 2.088859
v -1.415738 -0.923972 -1.171600
v -1.664687 -0.572784 -0.965923
v -0.129206 -0.296843 2.445543
v 0.667130 -0.671823 -0.249647
v -1.238693 -1.604915 0.487213
v -1.246021 -1.246861 1.706308
v -1.567007 -0.404457 1.074056
v 0.392040 -0.202248 2.001010
v 0.279296 -0.909327 -0.920109
v 2.080376 -1.442519 0.789549
v -0.682056 -1.762453 0.093970
v 1.673777 -1.632287 -0.969308
v 0.818735 -1.917399 1.539034
v 1.595428 -0.745282 1.039430
v -0.287612 -1.595162 -0.909409
v 0.871451 -1.926699 1.304200
vn -0.234800 -0.940100 0.247100
vn -0.658800 -0.739400 0.138600
vn -0.345900 -0.925400 0.154900
vn -0.905900 0.418400 -0.064700
vn -0.567000 0.682000 0.461900
vn -0.175000 0.961500 0.211800
vn 0.095200 0.874900 -0.474800
vn 0.046100 0.940600 -0.336200
vn -0.076400 0.967800 -0.239600
vn 0.697000 -0.509800 0.504300
vn 0.306400 -0.464200 0.831000
vn 0.492600 -0.622300 0.608300
vn 0.498900 -0.859100 -0.113600
vn 0.194500 -0.964900 -0.176500
vn 0.350400 -0.867900 -0.352100
vn 0.800800 -0.497500 -0.333400
vn 0.007900 -0.079000 -0.996800
vn 0.330900 -0.013900 -0.943500
vn -0.217100 -0.756200 -0.617300
vn -0.621100 0.052800 0.781900
vn -0.779000 0.290700 0.555500
vn -0.772000 0.109700 0.626000
vn 0.359700 0.581800 -0.729400
vn 0.064300 0.715200 -0.695900
vn 0.349700 -0.925000 0.148600
vn 0.644900 -0.744300 0.173300
vn 0.649000 -0.658600 0.380900
vn 0.079300 -0.920300 0.383100
vn 0.199000 -0.940200 0.276200
vn 0.484900 -0.759000 0.434400
vn 0.618900 0.391100 -0.681100
vn 0.451800 0.810900 -0.371900
vn 0.411900 0.781900 -0.467900
vn -0.253300 0.951100 -0.176400
vn -0.269500 0.963000 -0.000600
vn 0.048400 -0.840600 0.539400
vn 0.165500 -0.918200 0.359900
vn -0.588100 -0.783800 -0.199400
vn -0.452300 -0.760100 -0.466500
vn -0.495400 -0.552700 -0.670100
vn -0.345200 -0.871500 -0.348300
vn -0.191700 0.798900 0.570100
vn -0.342300 0.738000 0.581600
vn -0.309300 0.022600 0.950700
vn -0.450100 -0.289300 -0.844800
vn -0.444900 0.043300 -0.894500
vn -0.681100 0.535900 0.498900
vn -0.436000 0.807300 0.397700
vn -0.840500 0.541600 0.012400
vn -0.023800 0.966100 0.256900
vn 0.125700 0.686500 -0.716200
vn 0.043400 0.926000 -0.375000
vn -0.234000 0.389900 -0.890600
vn 0.632600 -0.622900 0.460200
vn 0.133800 -0.827800 -0.544800
vn 0.062400 -0.558700 -0.827000
vn 0.806800 -0.117500 -0.579000
vn 0.950900 -0.300800 -0.072600
vn 0.799500 0.330600 0.501500
vn 0.895600 -0.193400 0.400500
vn -0.265100 -0.485100 0.833300
vn -0.325900 -0.788400 0.521700
vn 0.680600 0.524600 -0.511500
vn 0.740000 0.635700 -0.219500
vn 0.878100 -0.370500 0.302700
vn -0.698500 -0.308300 0.645800
vn -0.485600 -0.863000 -0.139000
vn -0.420200 -0.907400 0.002700
vn -0.313900 -0.891900 0.325600
vn -0.561900 -0.818900 0.116800
vn 0.284700 0.951600 0.115500
vn 0.509000 0.849700 -0.137400
vn -0.784600 0.226200 -0.577300
vn -0.464400 0.488500 -0.738700
vn -0.373500 -0.097900 -0.922400
vn -0.743200 -0.424000 -0.517500
vn 0.819200 0.279400 0.500900
vn 0.985100 0.083400 0.150200
vn -0.010100 -0.980100 -0.198300
vn 0.302200 0.622700 0.721700
vn 0.081400 -0.027200 0.996300
vn 0.680000 0.340500 0.649300
vn 0.189300 -0.428800 -0.883300
vn -0.021600 -0.150400 -0.988400
vn 0.872800 -0.411900 0.261700
vn 0.932200 0.360500 -0.030800
vn 0.299100 0.640900 -0.707000
vn 0.453200 -0.237600 -0.859100
vn 0.001300 0.146200 -0.989300
vn 0.496400 0.855400 -0.147600
vn 0.183100 -0.874600 0.448900
vn 0.524600 -0.414100 -0.743800
vn -0.029900 0.830700 -0.555900
vn -0.179700 -0.693800 -0.697400
vn 0.767800 0.613800 -0.183600
vn 0.939200 0.335500 -0.072500
vn 0.742700 0.667900 0.047200
vn 0.457700 0.861000 -0.221900
vn -0.461900 0.834900 0.299300
vn -0.216900 0.974300 -0.061100
vn -0.728900 0.612000 -0.306700
vn 0.499700 0.117000 -0.858200
vn -0.788500 -0.556400 -0.261900
vn 0.420100 0.871900 -0.251400
vn 0.138200 0.663400 -0.735300
vn 0.333700 0.927700 -0.167100
vn 0.347900 0.928500 -0.129600
vn 0.122800 0.966400 0.225600
vn -0.560700 -0.826700 -0.047000
vn -0.652300 -0.741500 -0.156900
vn -0.585300 -0.810400 -0.023400
vn 0.349300 -0.896600 0.272200
vn -0.906200 -0.422600 -0.015100
vn -0.836500 -0.228600 0.498000
vn -0.830200 0.498700 0.249000
vn -0.776600 -0.629100 -0.032500
vn -0.241800 0.904400 -0.351500
vn -0.872000 -0.250200 0.420700
vn -0.691700 -0.407800 0.596000
vn -0.630700 -0.766000 -0.124700
vn 0.130900 0.966700 -0.219800
vn -0.810500 -0.479400 0.336500
usemtl None
s 1
# 173 texture coords
vt 0.605588 0.501592
vt 0.726147 0.483805
vt 0.672976 0.387236
vt 0.515337 0.388942
vt 0.587646 0.314778
vt 0.045842 0.682137
vt 0.146021 0.714922
vt 0.349111 0.765278
vt 0.342233 0.842823
vt 0.306207 0.717945
vt 0.625825 0.130606
vt 0.758745 0.112477
vt 0.818912 0.345175
vt 0.795594 0.491343
vt 0.483057 0.287838
vt 0.537343 0.158860
vt 0.554522 0.223273
vt 0.088929 0.250536
vt 0.153904 0.559833
vt 0.474996 0.667037
vt 0.387026 0.622958
vt 0.871439 0.273990
vt 0.916309 0.169939
vt 0.932761 0.256497
vt 0.163751 0.701875
vt 0.231820 0.905303
vt 0.886709 0.621228
vt 0.251942 0.694877
vt 0.237046 0.541258
vt 0.184177 0.571907
vt 0.927131 0.808339
vt 0.361924 0.231423
vt 0.251799 0.493356
vt 0.591743 0.265174
vt 0.669248 0.373821
vt 0.877665 0.353716
vt 0.808527 0.105458
vt 0.813523 0.048650
vt 0.125718 0.114232
vt 0.939808 0.677999
vt 0.087158 0.647017
vt 0.637570 0.804956
vt 0.517756 0.762435
vt 0.455731 0.253199
vt 0.403511 0.225704
vt 0.530221 0.662534
vt 0.367203 0.819260
vt 0.460056 0.903058
vt 0.590655 0.806811
vt 0.455641 0.860433
vt 0.243670 0.052655
vt 0.436139 0.856857
vt 0.891092 0.108108
vt 0.843631 0.156697
vt 0.125342 0.908397
vt 0.129398 0.825963
vt 0.578983 0.164358
vt 0.599010 0.111177
vt 0.117268 0.691042
vt 0.797167 0.377265
vt 0.751130 0.452788
vt 0.508478 0.467043
vt 0.290968 0.461158
vt 0.441741 0.834845
vt 0.501142 0.294390
vt 0.108429 0.659419
vt 0.365820 0.514890
vt 0.910778 0.646043
vt 0.571356 0.232024
vt 0.793532 0.414521
vt 0.801228 0.385139
vt 0.155414 0.278252
vt 0.184125 0.133798
vt 0.247673 0.137940
vt 0.254986 0.234844
vt 0.206708 0.108336
vt 0.271284 0.325575
vt 0.216774 0.348473
vt 0.208093 0.088011
vt 0.218643 0.018901
vt 0.261614 0.028442
vt 0.613800 0.901825
vt 0.664026 0.780106
vt 0.344857 0.267249
vt 0.843108 0.436695
vt 0.654637 0.934488
vt 0.583189 0.976846
vt 0.565799 0.965269
vt 0.647767 0.956372
vt 0.477819 0.960571
vt 0.695291 0.885736
vt 0.693681 0.697289
vt 0.698697 0.796789
vt 0.662928 0.669902
vt 0.439796 0.984317
vt 0.419474 0.932408
vt 0.435274 0.876388
vt 0.362544 0.985516
vt 0.559568 0.640237
vt 0.598797 0.663158
vt 0.597514 0.593304
vt 0.537901 0.526195
vt 0.372079 0.904147
vt 0.458353 0.462137
vt 0.362121 0.428936
vt 0.351296 0.925790
vt 0.199121 0.918305
vt 0.315097 0.381907
vt 0.161013 0.461701
vt 0.063081 0.870581
vt 0.014124 0.795627
vt 0.105367 0.949385
vt 0.022254 0.701768
vt 0.057325 0.508714
vt 0.093476 0.451345
vt 0.004212 0.664868
vt 0.082462 0.553217
vt 0.128250 0.387640
vt 0.069014 0.316202
vt 0.053379 0.303498
vt 0.130630 0.266010
vt 0.050772 0.103373
vt 0.128236 0.219825
vt 0.108952 0.091183
vt 0.135479 0.016358
vt 0.143919 0.143213
vt 0.033648 0.574422
vt 0.248082 0.402492
vt 0.359696 0.376432
vt 0.324447 0.354790
vt 0.301823 0.261579
vt 0.435793 0.434297
vt 0.311501 0.130398
vt 0.369352 0.143466
vt 0.283375 0.181418
vt 0.497630 0.465102
vt 0.402441 0.061251
vt 0.494446 0.062191
vt 0.533631 0.036868
vt 0.605662 0.025931
vt 0.543365 0.136615
vt 0.538129 0.514780
vt 0.600179 0.075273
vt 0.661551 0.093915
vt 0.608350 0.536169
vt 0.715999 0.654465
vt 0.653570 0.643486
vt 0.758770 0.570226
vt 0.887963 0.484562
vt 0.858983 0.011150
vt 0.898899 0.067319
vt 0.991623 0.368945
vt 0.931914 0.452040
vt 0.921647 0.471581
vt 0.944117 0.143686
vt 0.992015 0.222422
vt 0.980695 0.318465
vt 0.952392 0.339516
vt 0.984571 0.331054
vt 0.911608 0.877280
vt 0.897716 0.955876
vt 0.851580 0.929240
vt 0.808358 0.982613
vt 0.854652 0.907655
vt 0.819151 0.816800
vt 0.856054 0.671506
vt 0.972852 0.809354
vt 0.955364 0.689080
vt 0.961626 0.762711
vt 0.849152 0.644397
vt 0.912481 0.623456
vt 0.871853 0.583247
vt 0.982633 0.324760
f 4/3/1 5/4/2 6/5/3
f 7/111/4 8/6/5 9/7/6
f 10/8/7 11/9/8 12/10/9
f 16/149/10 3/148/11 17/14/12
f 30/23/13 94/54/14 93/53/15 59/155/16
f 21/18/17 22/120/18 23/122/19
f 24/109/20 25/19/21 26/117/22
f 33/119/23 22/120/18 21/18/17 32/121/24
f 29/22/25 30/23/13 31/24/26
f 55/85/27 102/60/28 15/13/29 56/36/30
f 37/27/31 35/170/32 38/172/33
f 39/28/34 11/9/8 34/25/35
f 2/2/36 5/4/2 4/3/1 103/61/37
f 98/57/38 70/141/39 99/58/40 13/11/41
f 109/63/42 51/33/43 24/109/20 89/128/44
f 23/122/19 121/124/45 61/39/46 21/18/17
f 63/41/47 25/19/21 41/30/48 113/66/49
f 12/10/9 39/28/34 41/30/48 40/29/50
f 77/96/51 76/48/52 32/90/24 104/95/53
f 54/158/54 55/85/27 56/36/30
f 57/37/55 23/144/19 58/38/56
f 59/91/16 60/86/57 42/93/58
f 54/158/54 64/152/59 67/153/60 55/85/27
f 25/19/21 63/41/47 26/117/22
f 41/30/48 25/19/21 24/109/20 51/33/43
f 3/148/11 90/145/61 1/1/62 2/2/36
f 68/82/63 32/90/24 65/42/64
f 13/11/41 99/58/40 121/143/45 23/144/19
f 26/117/22 63/41/47 8/6/5
f 55/85/27 67/153/60 85/154/65 16/149/10
f 75/132/66 72/45/67 71/44/68
f 76/48/52 77/96/51 38/97/33
f 15/13/29 102/60/28 53/35/69 52/34/70
f 10/8/7 12/10/9 28/21/71 27/20/72
f 87/162/73 108/164/74 107/160/75 49/161/76
f 83/74/77 67/79/60 84/51/78
f 23/144/19 14/12/79 15/13/29 13/11/41
f 43/77/80 91/78/81 3/72/11 44/75/82
f 91/146/81 89/147/44 90/145/61 3/148/11
f 45/139/83 88/140/84 70/141/39
f 116/92/85 42/93/58 101/83/86 64/94/59
f 47/166/87 62/40/88 45/169/83 46/31/89
f 92/52/90 35/103/32 11/9/8
f 35/103/32 34/25/35 11/9/8
f 94/54/14 30/23/13 29/22/25
f 122/71/91 4/3/1 53/35/69 102/60/28
f 68/82/63 60/86/57 118/89/92 22/87/18
f 107/160/75 86/165/93 47/166/87 46/31/89
f 72/45/67 50/138/94 70/141/39 71/44/68
f 73/46/95 120/99/96 66/100/97 69/43/98
f 8/6/5 100/59/99 9/7/6
f 101/83/86 68/82/63 65/42/64
f 64/94/59 101/83/86 65/42/64
f 7/111/4 9/7/6 97/56/100 96/110/101
f 88/126/84 104/123/53 61/39/46
f 35/170/32 37/27/31 115/68/102 47/166/87
f 50/138/94 72/45/67 48/32/103 49/134/76
f 86/165/93 107/160/75 108/164/74
f 61/39/46 70/125/39 88/126/84
f 54/158/54 56/36/30 29/22/25 31/24/26
f 69/43/98 110/64/104 74/47/105
f 53/35/69 6/5/3 52/34/70
f 30/23/13 59/155/16 42/156/58 31/24/26
f 7/131/4 96/135/101 87/133/73
f 83/74/77 16/73/10 85/76/65
f 79/50/106 69/43/98 78/49/107 76/48/52
f 118/151/92 57/37/55 58/38/56 22/150/18
f 67/101/60 64/94/59 66/100/97
f 84/51/78 67/79/60 66/80/97
f 12/10/9 40/29/50 109/63/42 114/67/108
f 71/44/68 19/16/109 20/17/110 18/15/111
f 107/137/75 50/138/94 49/134/76
f 43/105/80 27/20/72 28/21/71
f 122/71/91 119/70/112 103/61/37 4/3/1
f 14/12/79 29/22/25 15/13/29
f 101/83/86 42/93/58 60/86/57 68/82/63
f 43/105/80 114/67/108 109/63/42
f 48/32/103 81/84/113 49/134/76
f 17/14/12 103/61/37 119/70/112 16/149/10
f 23/144/19 22/150/18 58/38/56
f 78/49/107 65/42/64 32/90/24 76/48/52
f 104/95/53 88/98/84 77/96/51
f 47/166/87 115/68/102 62/40/88
f 81/84/113 82/129/114 80/130/115 7/131/4
f 98/57/38 52/34/70 117/69/116
f 11/9/8 39/28/34 12/10/9
f 86/107/93 95/55/117 96/110/101 97/56/100
f 68/82/63 33/88/23 32/90/24
f 113/66/49 41/30/48 34/25/35 100/59/99
f 97/56/100 9/7/6 34/25/35
f 9/7/6 100/59/99 34/25/35
f 119/70/112 55/85/27 16/149/10
f 75/132/66 71/44/68 18/15/111 112/136/118
f 83/102/77 73/46/95 44/104/82
f 57/37/55 118/151/92 93/53/15 94/54/14
f 107/160/75 46/31/89 50/167/94
f 43/105/80 109/63/42 89/128/44 91/108/81
f 50/167/94 46/31/89 45/169/83
f 45/139/83 70/141/39 50/138/94
f 120/99/96 73/46/95 83/102/77
f 17/14/12 3/148/11 2/2/36 103/61/37
f 92/52/90 38/97/33 35/103/32
f 69/43/98 79/50/106 110/64/104
f 65/42/64 69/43/98 66/100/97 64/94/59
f 31/24/26 42/156/58 116/173/85 54/158/54
f 6/5/3 117/69/116 52/34/70
f 14/12/79 94/54/14 29/22/25
f 21/18/17 104/123/53 32/121/24
f 104/123/53 21/18/17 61/39/46
f 54/158/54 116/173/85 64/152/59
f 106/115/119 24/109/20 26/117/22 112/114/118
f 69/43/98 65/42/64 78/49/107
f 119/70/112 122/71/91 55/85/27
f 75/127/66 26/117/22 8/6/5 82/116/114
f 81/84/113 48/32/103 72/45/67
f 106/142/119 1/1/62 90/145/61
f 111/65/120 5/4/2 18/15/111
f 63/41/47 100/59/99 8/6/5
f 4/3/1 6/5/3 53/35/69
f 113/66/49 100/59/99 63/41/47
f 36/26/121 97/56/100 34/25/35
f 26/117/22 75/127/66 112/114/118
f 110/64/104 79/50/106 92/52/90
f 92/52/90 11/9/8 110/64/104
f 83/74/77 3/72/11 16/73/10
f 3/72/11 83/74/77 44/75/82
f 47/106/87 36/26/121 35/103/32
f 59/91/16 118/89/92 60/86/57
f 82/129/114 81/84/113 72/45/67 75/132/66
f 68/82/63 22/87/18 33/88/23
f 87/162/73 96/163/101 108/164/74
f 40/29/50 51/33/43 109/63/42
f 86/107/93 36/26/121 47/106/87
f 86/107/93 97/56/100 36/26/121
f 105/62/122 106/142/119 112/136/118
f 23/144/19 57/37/55 14/12/79
f 14/12/79 57/37/55 94/54/14
f 106/142/119 105/62/122 1/1/62
f 1/1/62 105/62/122 5/4/2
f 7/111/4 80/113/115 8/6/5
f 82/116/114 8/6/5 80/113/115
f 5/4/2 2/2/36 1/1/62
f 62/40/88 115/68/102 77/171/51
f 55/85/27 122/71/91 102/60/28
f 35/103/32 36/26/121 34/25/35
f 87/133/73 49/134/76 81/84/113 7/131/4
f 79/50/106 38/97/33 92/52/90
f 76/48/52 38/97/33 79/50/106
f 19/16/109 70/141/39 98/57/38
f 71/44/68 70/141/39 19/16/109
f 114/67/108 43/105/80 28/21/71
f 114/67/108 28/21/71 12/10/9
f 84/51/78 66/80/97 120/81/96
f 84/51/78 120/81/96 83/74/77
f 95/55/117 108/112/74 96/110/101
f 108/112/74 95/55/117 86/107/93
f 34/25/35 41/30/48 39/28/34
f 110/64/104 11/9/8 74/47/105
f 61/39/46 121/124/45 70/125/39
f 98/57/38 117/69/116 20/17/110 19/16/109
f 69/43/98 74/47/105 73/46/95
f 15/13/29 29/22/25 56/36/30
f 74/47/105 11/9/8 10/8/7
f 45/169/83 62/40/88 88/168/84
f 77/171/51 88/168/84 62/40/88
f 73/46/95 27/20/72 44/104/82
f 43/105/80 44/104/82 27/20/72
f 118/151/92 59/155/16 93/53/15
f 98/57/38 13/11/41 15/13/29 52/34/70
f 27/20/72 73/46/95 74/47/105 10/8/7
f 83/74/77 85/76/65 67/79/60
f 70/141/39 121/143/45 99/58/40
f 77/171/51 115/68/102 37/27/31
f 37/27/31 38/172/33 77/171/51
f 40/29/50 41/30/48 51/33/43
f 111/65/120 117/69/116 6/5/3 5/4/2
f 90/118/61 89/128/44 24/109/20 106/115/119
f 20/17/110 117/69/116 111/65/120 18/15/111
f 105/62/122 112/136/118 18/15/111 5/4/2
