# Blender v2.74 (sub 0) OBJ File: ''
# www.blender.org
mtllib LOW.mtl
o Group18258
v -0.026760 -0.944798 0.835834
v -0.315236 -0.196410 0.872829
v -0.390475 -1.832097 0.367540
v -0.851712 0.164929 -0.008284
v -0.735989 -0.017569 -0.523559
v -0.853715 -0.453667 0.108895
v 0.501121 -0.568775 -0.789583
v 0.223778 -0.355382 -0.939168
v 0.425259 0.117305 -0.586106
v 0.553281 -0.854150 -0.877301
v 0.335041 -1.381570 -0.910862
v 0.952692 -1.712640 -0.388222
v 1.456783 -1.303597 -0.336050
v 1.112971 -1.428704 0.059433
v 0.814470 -0.095657 0.298936
v 0.946851 -0.296911 0.068358
v 0.825098 0.051823 0.064879
v 0.301395 0.513138 0.857053
v -0.387899 0.462968 0.836091
v 0.361794 0.266734 0.876299
v 0.115138 0.947569 -0.089684
v -0.284885 0.827159 -0.267181
v -0.381959 0.822809 0.693736
v -0.667448 -1.732794 -0.581365
v 0.816119 -1.453846 -0.775738
v 1.381683 -1.378317 -0.436972
v -0.214645 -2.104866 0.151410
v -0.507021 -1.892771 -0.604792
v 0.214801 -2.200382 -0.142574
v 0.140409 -2.178822 0.058405
v 0.802782 -1.407668 0.405133
v 0.040729 -0.299844 -1.004148
v -0.676830 0.014923 -0.581800
v -0.076924 0.237997 -0.826212
v 0.004627 0.943064 0.556391
v 0.969734 -0.266163 -0.142979
v 0.966524 -0.279900 -0.404174
v 0.857243 -0.051595 -0.144585
v 0.299708 -1.466621 0.465119
v 0.792761 0.366855 0.153992
v 0.708033 -0.200909 0.564344
v -0.480816 -1.810740 -0.689070
v 0.047263 -1.125223 -1.006936
v 0.678788 -1.790888 -0.707684
v 0.814274 -1.996106 -0.376696
v -0.142979 -2.030038 -0.468477
v 0.319509 -0.313748 0.908067
v 0.517387 -0.898543 0.687232
v 0.256011 -0.545608 0.874994
v 0.388142 -1.075906 0.651110
v -0.726454 -1.873468 -0.284493
v -0.766145 -0.933123 0.410816
v 0.797138 0.330636 -0.262270
v 0.451165 0.847491 -0.207784
v 0.514958 0.786363 0.367497
v 0.386815 0.793334 0.594245
v 0.996875 -0.379308 -0.590292
v 0.978581 -0.710026 -0.778289
v 0.790584 -0.228089 -0.598152
v 1.268179 -1.224154 -0.691159
v 1.301301 -0.715169 0.006032
v 1.054409 -0.727439 0.143419
v 1.085974 -1.108797 0.212500
v 0.863561 -0.630241 0.423018
v 0.588871 -0.968653 0.470193
v 0.752824 -1.685511 0.243740
v 0.494181 0.231514 -0.447019
v 0.570077 0.358332 -0.396290
v 0.761327 0.090591 -0.449368
v 1.348276 -0.626898 -0.533902
v 1.441205 -1.303452 -0.414816
v 1.283979 -1.220151 0.022290
v 1.418112 -0.688261 -0.227418
v -0.811787 0.023648 0.407182
v -0.863291 0.200546 0.219445
v -0.607105 0.720565 0.373106
v 1.312228 -0.591979 -0.130110
v 1.067650 -0.533612 -0.059806
v 1.122991 -0.426272 -0.267783
v 1.180887 -0.431512 -0.532142
v -0.530395 0.587539 -0.520185
v -0.718693 0.220287 -0.516188
v -0.219300 -1.449108 0.575056
v 1.260094 -0.808187 -0.668631
v 0.836179 -0.800941 -0.834312
v 1.123445 -1.232642 -0.748433
v 0.688544 -1.403865 -0.836282
v -0.802486 -1.290598 0.198452
v -0.758686 -1.578865 0.229147
v 0.818602 0.086497 -0.184829
v 0.864326 -1.499497 0.316377
v 0.977083 -1.407291 0.080442
v 0.731456 -1.930592 -0.006105
v 0.242875 0.861073 0.649757
v 0.029568 -1.682000 -0.813823
v 0.973692 -1.277046 0.311837
v 0.915589 -0.450729 0.321168
v -0.367310 0.627030 0.817220
v 0.782488 -1.568738 -0.669005
v -0.825916 -1.094410 0.058992
v -0.055755 0.398673 -0.745023
v -0.488385 0.748328 -0.270146
v 0.714923 -0.691156 0.453786
v 0.672510 -0.530721 0.582596
v 0.453989 0.788688 -0.262897
v 1.139041 -1.266410 0.138785
v 0.847855 -0.124597 -0.434335
v 0.226097 -1.375718 0.595161
v 0.754669 -0.162919 0.465630
v 0.461448 -1.147956 0.499540
v 0.438077 -1.232165 0.588272
vt 0.750636 0.222234
vt 0.635508 0.157244
vt 0.921856 0.171048
vt 0.374700 0.921604
vt 0.376596 0.828736
vt 0.479998 0.905372
vt 0.001943 0.036979
vt 0.055366 0.001943
vt 0.110705 0.091632
vt 0.361579 0.637137
vt 0.428221 0.557464
vt 0.525118 0.569823
vt 0.283951 0.050972
vt 0.331459 0.152406
vt 0.242374 0.131203
vt 0.170914 0.360463
vt 0.221204 0.333310
vt 0.205336 0.393957
vt 0.493121 0.228356
vt 0.533641 0.120156
vt 0.534872 0.250632
vt 0.158733 0.600945
vt 0.155170 0.677591
vt 0.001943 0.622069
vt 0.641445 0.717480
vt 0.829230 0.489869
vt 0.853169 0.599131
vt 0.774877 0.551205
vt 0.543098 0.449956
vt 0.620824 0.330998
vt 0.624615 0.483875
vt 0.996891 0.262119
vt 0.850845 0.372121
vt 0.365741 0.671642
vt 0.368379 0.819139
vt 0.168067 0.014305
vt 0.052645 0.572088
vt 0.255997 0.346188
vt 0.298726 0.357754
vt 0.244867 0.386237
vt 0.853197 0.286370
vt 0.177554 0.441525
vt 0.037778 0.412816
vt 0.121818 0.337568
vt 0.641198 0.681880
vt 0.496163 0.628043
vt 0.764511 0.479654
vt 0.724139 0.536280
vt 0.637545 0.398742
vt 0.636931 0.267092
vt 0.742018 0.315217
vt 0.679936 0.262347
vt 0.775958 0.296586
vt 0.554973 0.330418
vt 0.782862 0.085154
vt 0.245384 0.457520
vt 0.200778 0.554028
vt 0.115833 0.507359
vt 0.073278 0.507488
vt 0.326642 0.489021
vt 0.390617 0.489239
vt 0.307798 0.528627
vt 0.885326 0.556743
vt 0.266577 0.249245
vt 0.220804 0.252573
vt 0.216737 0.184190
vt 0.723033 0.402510
vt 0.770978 0.345749
vt 0.905678 0.364030
vt 0.378290 0.572468
vt 0.231603 0.586477
vt 0.270560 0.494558
vt 0.295317 0.444076
vt 0.981627 0.598884
vt 0.865152 0.610101
vt 0.264208 0.167009
vt 0.307604 0.255213
vt 0.628776 0.038437
vt 0.605867 0.001943
vt 0.477699 0.093597
vt 0.507632 0.030923
vt 0.285615 0.270301
vt 0.251242 0.293691
vt 0.288110 0.316570
vt 0.336558 0.325433
vt 0.353458 0.278855
vt 0.348596 0.156681
vt 0.275482 0.845380
vt 0.341474 0.840941
vt 0.847459 0.196000
vt 0.394178 0.436462
vt 0.356331 0.421333
vt 0.410663 0.510884
vt 0.469875 0.444147
vt 0.516443 0.509460
vt 0.851063 0.069349
vt 0.896580 0.095851
vt 0.287648 0.428798
vt 0.244920 0.412423
vt 0.176411 0.117216
vt 0.221804 0.124337
vt 0.668864 0.571012
vt 0.590845 0.494841
vt 0.135814 0.841848
vt 0.113703 0.783386
vt 0.209411 0.863567
vt 0.263388 0.001943
vt 0.052228 0.527229
vt 0.591488 0.606319
vt 0.678573 0.614137
vt 0.662388 0.685149
vt 0.163009 0.266488
vt 0.190726 0.157295
vt 0.180478 0.298221
vt 0.980367 0.197602
vt 0.158555 0.134279
vt 0.508839 0.114608
vt 0.429544 0.193494
vt 0.802925 0.497661
vt 0.035330 0.313871
vt 0.681137 0.755027
vt 0.457726 0.354040
vt 0.665699 0.855528
vt 0.578387 0.858811
vt 0.257318 0.755519
vt 0.289993 0.735338
vt 0.032969 0.682948
vt 0.139771 0.711106
vt 0.280268 0.996647
vt 0.378380 0.959359
vt 0.584846 0.494276
vt 0.247843 0.885347
vt 0.728740 0.375791
vt 0.090944 0.218085
vt 0.118369 0.281981
vt 0.213984 0.549127
vt 0.122823 0.773002
vt 0.149951 0.699332
vt 0.141324 0.255120
vt 0.234455 0.159249
vt 0.290664 0.486689
vt 0.295938 0.390637
vt 0.249074 0.538614
vt 0.330361 0.388451
vt 0.829143 0.269319
vt 0.641990 0.397405
vt 0.141189 0.344815
vt 0.799338 0.319749
vt 0.804742 0.302109
vt 0.858407 0.623014
vt 0.207271 0.576218
vt 0.120482 0.122767
vt 0.137419 0.142494
vt 0.190333 0.034414
vt 0.030907 0.457812
vt 0.462239 0.418853
vt 0.519394 0.484175
vt 0.545752 0.477958
vt 0.328312 0.454927
vt 0.328674 0.455296
vt 0.617339 0.869914
vt 0.964782 0.366415
vt 0.203475 0.027495
vt 0.872578 0.383911
vn -0.102400 -0.286800 0.952500
vn -0.383000 -0.050200 0.922300
vn -0.326800 -0.576000 0.749200
vn -0.963500 0.226400 -0.142800
vn -0.878400 0.018000 -0.477600
vn -0.999100 -0.036700 -0.019100
vn 0.410200 0.352700 -0.841000
vn 0.456600 0.213200 -0.863700
vn 0.628800 0.300900 -0.717000
vn 0.189400 0.102200 -0.976500
vn 0.140500 -0.218800 -0.965600
vn 0.767700 -0.614200 -0.182900
vn 0.926000 -0.354400 0.130000
vn 0.354400 -0.683800 0.637700
vn 0.918700 0.227800 0.322700
vn 0.904600 0.374200 0.204000
vn 0.979700 0.190100 0.063500
vn 0.398100 0.298400 0.867400
vn -0.455500 0.103100 0.884200
vn 0.457800 0.142700 0.877500
vn 0.029600 0.973700 -0.225900
vn -0.188800 0.906300 -0.378000
vn -0.446500 0.727100 0.521400
vn -0.786600 -0.230600 -0.572700
vn 0.291000 -0.554400 -0.779700
vn 0.664200 -0.681800 -0.306500
vn -0.250700 -0.871400 0.421600
vn -0.360200 -0.775800 -0.517900
vn 0.094500 -0.988700 -0.116000
vn 0.096800 -0.880800 0.463400
vn 0.361600 -0.285300 0.887600
vn -0.029400 0.165700 -0.985700
vn -0.578600 0.092200 -0.810300
vn -0.000600 0.346300 -0.938100
vn -0.019000 0.963400 0.267100
vn 0.827200 0.555700 0.082400
vn 0.694800 0.692100 -0.195600
vn 0.934800 0.354000 -0.026200
vn 0.242600 -0.552900 0.797100
vn 0.926300 0.325600 0.189600
vn 0.816600 0.047100 0.575200
vn -0.328700 -0.431800 -0.839900
vn -0.101800 -0.080900 -0.991500
vn 0.392600 -0.540300 -0.744300
vn 0.612000 -0.763600 -0.205800
vn -0.120500 -0.879500 -0.460300
vn 0.315300 -0.046200 0.947800
vn 0.596800 -0.365700 0.714200
vn 0.226100 -0.219200 0.949100
vn 0.495100 -0.348200 0.796000
vn -0.792600 -0.604500 -0.079300
vn -0.788800 -0.136600 0.599200
vn 0.860500 0.361400 -0.359000
vn 0.473400 0.810200 -0.345700
vn 0.692200 0.688300 0.217000
vn 0.659500 0.576000 0.483000
vn 0.434500 0.624400 -0.649100
vn 0.319100 0.276300 -0.906500
vn 0.399700 0.479400 -0.781300
vn 0.603500 -0.249200 -0.757300
vn 0.664700 0.339600 0.665400
vn 0.711500 0.264400 0.651000
vn 0.590300 -0.021400 0.806800
vn 0.570900 0.018100 0.820800
vn 0.542100 -0.251100 0.801800
vn 0.407500 -0.586700 0.699800
vn 0.746900 -0.072400 -0.660900
vn 0.462300 0.356500 -0.811900
vn 0.648300 0.386200 -0.656200
vn 0.793100 0.402500 -0.457100
vn 0.904000 -0.253400 -0.344400
vn 0.779600 -0.227800 0.583300
vn 0.933000 0.327400 0.149300
vn -0.868600 0.044900 0.493400
vn -0.958900 0.245400 0.142200
vn -0.753100 0.637500 0.162300
vn 0.608500 0.684400 0.401500
vn 0.705800 0.512800 0.488700
vn 0.660100 0.725200 0.195700
vn 0.583500 0.675400 -0.450900
vn -0.541300 0.580300 -0.608400
vn -0.781200 0.261700 -0.566800
vn -0.110800 -0.448400 0.886900
vn 0.591900 0.156300 -0.790700
vn 0.198900 0.155500 -0.967600
vn 0.337500 -0.209000 -0.917800
vn 0.260200 -0.240100 -0.935200
vn -0.982500 -0.117700 0.144600
vn -0.814100 -0.354300 0.460200
vn 0.981500 0.173200 -0.081100
vn 0.669400 -0.471300 0.574300
vn 0.583900 -0.611700 0.533600
vn 0.593100 -0.695800 0.405100
vn 0.290600 0.788300 0.542300
vn -0.029600 -0.503700 -0.863300
vn 0.762900 -0.230800 0.603900
vn 0.863800 0.188900 0.467000
vn -0.410900 0.333200 0.848600
vn 0.592300 -0.469000 -0.655100
vn -0.996400 -0.054100 -0.065000
vn 0.129800 0.531400 -0.837100
vn -0.601300 0.764000 -0.233800
vn 0.559300 -0.129300 0.818800
vn 0.802900 -0.088000 0.589500
vn 0.447700 0.566800 -0.691600
vn 0.406200 -0.357100 0.841100
vn 0.838600 0.416500 -0.351100
vn 0.219900 -0.583400 0.781800
vn 0.857000 0.155900 0.491100
vn 0.652200 -0.212300 0.727700
vn 0.790900 -0.348400 0.503100
usemtl None
s 1
f 1/1/1 2/2/2 3/3/3
f 4/4/4 5/5/5 6/6/6
f 7/7/7 8/8/8 9/9/9
f 8/10/8 10/11/10 11/12/11
f 12/13/12 13/14/13 14/15/14
f 15/16/15 16/17/16 17/18/17
f 18/19/18 19/20/19 20/21/20
f 21/22/21 22/23/22 23/24/23
f 6/6/6 5/5/5 24/25/24
f 25/26/25 26/27/26 12/28/12
f 27/29/27 28/30/28 29/31/29
f 3/3/3 30/32/30 31/33/31
f 32/34/32 24/25/24 33/35/33
f 8/8/8 34/36/34 9/9/9
f 21/22/21 23/24/23 35/37/35
f 36/38/36 37/39/37 38/40/38
f 3/3/3 31/33/31 39/41/39
f 40/42/40 20/43/20 41/44/41
f 42/45/42 32/34/32 43/46/43
f 44/47/44 45/48/45 46/49/46
f 47/50/47 2/2/2 1/1/1
f 48/51/48 49/52/49 50/53/50
f 27/29/27 51/54/51 28/30/28
f 3/3/3 2/2/2 52/55/52
f 53/56/53 54/57/54 55/58/55
f 56/59/56 20/43/20 40/42/40
f 57/60/57 58/61/58 59/62/59
f 60/63/60 26/27/26 25/26/25
f 61/64/61 62/65/62 63/66/63
f 64/67/64 65/68/65 31/33/31
f 46/49/46 45/48/45 29/31/29
f 66/69/66 31/33/31 30/32/30
f 59/62/59 7/70/7 67/71/67
f 68/72/68 53/56/53 69/73/69
f 60/63/60 70/74/70 71/75/71
f 72/76/72 13/14/13 73/77/73
f 52/55/52 2/2/2 74/78/74
f 75/79/75 23/80/23 76/81/76
f 62/65/62 77/82/77 78/83/78
f 79/84/79 80/85/80 37/39/37
f 19/20/19 74/78/74 2/2/2
f 19/20/19 2/2/2 47/50/47
f 70/86/70 73/77/73 71/87/71
f 77/82/77 80/85/80 79/84/79
f 32/34/32 33/35/33 81/88/81
f 81/88/81 82/89/82 4/4/4
f 49/52/49 1/1/1 50/53/50
f 3/3/3 83/90/83 1/1/1
f 84/91/84 58/61/58 70/92/70
f 85/93/85 86/94/86 87/95/87
f 52/55/52 75/79/75 88/96/88
f 52/55/52 89/97/89 3/3/3
f 53/56/53 55/58/55 40/42/40
f 69/98/69 53/56/53 90/99/90
f 91/100/91 12/13/12 92/101/92
f 45/48/45 93/102/93 30/103/30
f 21/104/21 54/105/54 22/106/22
f 54/57/54 21/22/21 35/37/35
f 45/48/45 44/47/44 12/28/12
f 12/13/12 91/100/91 45/107/45
f 54/57/54 35/37/35 94/108/94
f 94/108/94 35/37/35 23/24/23
f 95/109/95 46/110/46 28/111/28
f 28/30/28 46/49/46 29/31/29
f 62/65/62 64/112/64 96/113/96
f 78/83/78 97/114/97 62/65/62
f 10/11/10 85/93/85 11/12/11
f 58/61/58 7/70/7 59/62/59
f 3/3/3 89/97/89 27/115/27
f 3/3/3 27/115/27 30/32/30
f 54/57/54 94/108/94 55/58/55
f 56/59/56 40/42/40 55/58/55
f 64/112/64 31/116/31 96/113/96
f 31/116/31 91/100/91 96/113/96
f 98/117/98 23/80/23 74/78/74
f 94/118/94 23/80/23 98/117/98
f 42/45/42 43/46/43 95/109/95
f 43/46/43 32/34/32 11/12/11
f 74/78/74 23/80/23 75/79/75
f 74/78/74 75/79/75 52/55/52
f 44/47/44 99/119/99 12/28/12
f 95/109/95 43/46/43 11/12/11
f 20/21/20 19/20/19 47/50/47
f 20/43/20 47/120/47 41/44/41
f 51/121/51 6/6/6 24/25/24
f 89/122/89 51/54/51 27/29/27
f 89/123/89 100/124/100 51/121/51
f 89/97/89 52/55/52 88/96/88
f 14/15/14 92/101/92 12/13/12
f 61/64/61 63/66/63 72/76/72
f 101/125/101 22/106/22 54/105/54
f 81/88/81 34/126/34 32/34/32
f 17/18/17 40/42/40 15/16/15
f 40/42/40 90/99/90 53/56/53
f 76/127/76 23/24/23 102/128/102
f 76/129/76 81/88/81 75/130/75
f 44/131/44 95/109/95 11/12/11
f 44/131/44 46/110/46 95/109/95
f 101/125/101 81/88/81 22/106/22
f 81/88/81 76/129/76 102/132/102
f 27/29/27 29/31/29 30/103/30
f 30/103/30 29/31/29 45/48/45
f 73/77/73 80/85/80 77/82/77
f 61/64/61 72/76/72 73/77/73
f 24/25/24 28/111/28 51/121/51
f 42/45/42 24/25/24 32/34/32
f 103/133/103 48/51/48 65/68/65
f 47/120/47 48/134/48 104/135/104
f 53/56/53 68/72/68 105/136/105
f 101/125/101 105/137/105 68/138/68
f 97/114/97 64/112/64 62/65/62
f 104/135/104 48/134/48 103/139/103
f 72/76/72 14/15/14 13/14/13
f 106/140/106 72/76/72 63/66/63
f 57/60/57 59/62/59 37/141/37
f 107/142/107 69/98/69 90/99/90
f 48/51/48 50/53/50 65/68/65
f 39/41/39 83/90/83 3/3/3
f 69/143/69 59/62/59 67/71/67
f 59/144/59 69/98/69 107/142/107
f 96/113/96 91/100/91 92/101/92
f 106/140/106 63/66/63 92/101/92
f 108/145/108 83/90/83 39/41/39
f 108/145/108 1/1/1 83/90/83
f 63/66/63 62/65/62 96/113/96
f 96/113/96 92/101/92 63/66/63
f 11/12/11 85/93/85 87/95/87
f 87/95/87 44/131/44 11/12/11
f 36/38/36 79/84/79 37/39/37
f 16/17/16 15/16/15 78/83/78
f 64/67/64 103/133/103 65/68/65
f 64/67/64 109/146/109 103/133/103
f 34/126/34 8/10/8 32/34/32
f 32/34/32 8/10/8 11/12/11
f 40/42/40 41/44/41 109/147/109
f 109/147/109 104/135/104 103/139/103
f 4/4/4 75/130/75 81/88/81
f 75/130/75 4/4/4 6/6/6
f 110/148/110 111/149/111 39/41/39
f 39/41/39 31/33/31 110/148/110
f 13/150/13 12/28/12 26/27/26
f 71/87/71 73/77/73 13/14/13
f 68/151/68 69/143/69 67/71/67
f 7/7/7 9/9/9 67/152/67
f 50/53/50 1/1/1 108/145/108
f 111/149/111 108/145/108 39/41/39
f 57/60/57 70/92/70 58/61/58
f 73/77/73 70/86/70 80/85/80
f 24/25/24 42/45/42 28/111/28
f 42/45/42 95/109/95 28/111/28
f 67/152/67 9/9/9 68/153/68
f 101/154/101 68/153/68 9/9/9
f 18/155/18 20/43/20 56/59/56
f 98/117/98 18/19/18 94/118/94
f 62/65/62 61/64/61 77/82/77
f 61/64/61 73/77/73 77/82/77
f 94/108/94 56/59/56 55/58/55
f 18/155/18 56/59/56 94/108/94
f 79/84/79 78/83/78 77/82/77
f 79/84/79 16/17/16 78/83/78
f 111/149/111 50/53/50 108/145/108
f 110/148/110 50/53/50 111/149/111
f 16/17/16 38/40/38 17/18/17
f 90/99/90 40/42/40 17/18/17
f 19/20/19 98/117/98 74/78/74
f 98/117/98 19/20/19 18/19/18
f 40/42/40 109/147/109 15/16/15
f 97/114/97 109/147/109 64/112/64
f 87/95/87 60/156/60 25/157/25
f 44/131/44 87/95/87 99/158/99
f 59/144/59 107/142/107 37/39/37
f 38/40/38 37/39/37 107/142/107
f 34/126/34 81/88/81 101/125/101
f 101/154/101 9/9/9 34/36/34
f 109/147/109 97/114/97 15/16/15
f 97/114/97 78/83/78 15/16/15
f 80/159/80 70/92/70 57/60/57
f 80/160/80 57/60/57 37/141/37
f 41/44/41 104/135/104 109/147/109
f 47/120/47 104/135/104 41/44/41
f 58/61/58 85/93/85 7/70/7
f 85/93/85 58/61/58 86/94/86
f 110/148/110 31/33/31 65/68/65
f 50/53/50 110/148/110 65/68/65
f 8/10/8 7/70/7 10/11/10
f 7/70/7 85/93/85 10/11/10
f 36/38/36 38/40/38 16/17/16
f 36/38/36 16/17/16 79/84/79
f 86/94/86 58/61/58 84/91/84
f 60/156/60 84/91/84 70/92/70
f 47/50/47 1/1/1 49/52/49
f 49/52/49 48/51/48 47/50/47
f 84/91/84 60/156/60 86/94/86
f 86/94/86 60/156/60 87/95/87
f 82/89/82 5/5/5 4/4/4
f 82/89/82 81/88/81 33/35/33
f 101/125/101 54/105/54 105/137/105
f 105/136/105 54/57/54 53/56/53
f 5/5/5 33/35/33 24/25/24
f 5/5/5 82/89/82 33/35/33
f 87/95/87 25/157/25 99/158/99
f 25/26/25 12/28/12 99/119/99
f 88/161/88 75/130/75 6/6/6
f 88/161/88 100/124/100 89/123/89
f 106/140/106 14/15/14 72/76/72
f 106/140/106 92/101/92 14/15/14
f 22/23/22 102/128/102 23/24/23
f 81/88/81 102/132/102 22/106/22
f 93/162/93 66/69/66 30/32/30
f 91/100/91 93/163/93 45/107/45
f 90/99/90 17/18/17 38/40/38
f 107/142/107 90/99/90 38/40/38
f 66/69/66 91/164/91 31/33/31
f 91/164/91 66/69/66 93/162/93
f 88/161/88 6/6/6 100/124/100
f 100/124/100 6/6/6 51/121/51
f 26/27/26 60/63/60 71/75/71
f 26/27/26 71/75/71 13/150/13
